<svg width="175" height="50" viewBox="0 0 175 50" fill="none" xmlns="http://www.w3.org/2000/svg">
<path d="M69.94 12.446L69.898 21H68.106L63.486 13.468C63.4487 16.2027 63.4253 18.2653 63.416 19.656L64.382 19.782C64.382 20.1647 64.2747 20.5707 64.06 21H60.658L60.532 20.23C61.0547 20.0153 61.4467 19.88 61.708 19.824C61.708 19.796 61.666 17.3273 61.582 12.418L60.42 12.054L60.532 11.2H64.172L68.246 18.508L68.036 12.418L66.874 12.054L66.986 11.2H70.626C70.6167 11.2 70.6167 11.2093 70.626 11.228C70.6447 11.2467 70.6633 11.2887 70.682 11.354C70.71 11.41 70.738 11.48 70.766 11.564C70.822 11.7133 70.8593 11.9607 70.878 12.306C70.402 12.3807 70.0893 12.4273 69.94 12.446ZM75.1082 19.656C76.1909 19.656 76.7322 19.194 76.7322 18.27C76.7322 17.878 76.5269 17.5467 76.1162 17.276C75.8175 17.0707 75.4069 16.8513 74.8842 16.618C74.3709 16.3753 73.9835 16.184 73.7222 16.044C73.4702 15.904 73.1762 15.708 72.8402 15.456C72.1962 14.9613 71.8742 14.3453 71.8742 13.608C71.8742 12.8707 72.1589 12.2593 72.7282 11.774C73.3069 11.2793 74.0862 11.032 75.0662 11.032C76.0462 11.032 77.0915 11.3447 78.2022 11.97C78.2022 12.642 78.1322 13.37 77.9922 14.154C77.6935 14.2473 77.2502 14.294 76.6622 14.294L76.2562 12.628C75.9109 12.5253 75.5329 12.474 75.1222 12.474C74.7115 12.474 74.3942 12.5627 74.1702 12.74C73.9462 12.9173 73.8342 13.1833 73.8342 13.538C73.8342 13.8833 74.0069 14.196 74.3522 14.476C74.7069 14.7467 75.1315 14.9987 75.6262 15.232C76.1209 15.456 76.4615 15.6147 76.6482 15.708C76.8349 15.8013 77.0729 15.9413 77.3622 16.128C77.6515 16.3147 77.8709 16.492 78.0202 16.66C78.4029 17.108 78.5942 17.6073 78.5942 18.158C78.5942 19.1287 78.2722 19.8753 77.6282 20.398C76.9842 20.9207 76.1442 21.182 75.1082 21.182C74.5575 21.182 73.9509 21.0887 73.2882 20.902C72.6349 20.706 72.0795 20.4587 71.6222 20.16C71.6409 19.5907 71.7155 18.8207 71.8462 17.85C72.2195 17.7753 72.6675 17.738 73.1902 17.738L73.4842 19.418C73.9975 19.5767 74.5389 19.656 75.1082 19.656ZM82.4476 17.976L82.4336 19.656L83.3996 19.782C83.3996 20.1647 83.2922 20.5707 83.0776 21H79.6756L79.5496 20.23C80.0722 20.0153 80.4642 19.88 80.7256 19.824C80.7256 19.796 80.6836 17.3273 80.5996 12.418L79.4376 12.054L79.5496 11.2H83.1756C83.3249 11.452 83.4136 11.8207 83.4416 12.306C82.9656 12.3807 82.6529 12.4273 82.5036 12.446L82.4616 15.61L85.2196 12.446L84.3376 12.306C84.3376 12.026 84.4216 11.6573 84.5896 11.2H88.2296C88.2856 11.536 88.3229 11.8207 88.3416 12.054C87.8469 12.2407 87.4596 12.362 87.1796 12.418L84.6176 15.75L87.4456 19.642L88.6916 19.768C88.6916 20.16 88.5842 20.5707 88.3696 21H86.3676L83.4836 16.856L82.4476 17.976ZM70.38 33.92L72.22 24H77.42C77.5267 24.5733 77.58 24.98 77.58 25.22C76.94 25.4467 76.3867 25.62 75.92 25.74L77.34 36.08L78.72 36.26C78.72 36.8067 78.5667 37.3867 78.26 38H73.4L73.22 36.9C73.9667 36.5933 74.5267 36.4 74.9 36.32L73.36 28.16L71.32 37.02H69.28L66.12 27.24L64.42 36.08L65.8 36.26C65.8 36.8067 65.6467 37.3867 65.34 38H60.48L60.3 36.9C61.0467 36.5933 61.6067 36.4 61.98 36.32L63.4 25.74L61.74 25.22L61.9 24H67.5L70.18 33.92H70.38ZM84.4136 26C84.4136 27.52 84.4003 28.8267 84.3736 29.92H86.4136L86.6136 28.54C87.2936 28.54 87.9536 28.7067 88.5936 29.04V33.04L87.2736 33.1C86.9536 32.62 86.7669 32.2 86.7136 31.84H84.3536C84.3269 33.7067 84.3136 35.1133 84.3136 36.06H87.7336L88.1736 34.32C89.0003 34.32 89.6269 34.36 90.0536 34.44C90.2536 35.2 90.3536 35.8933 90.3536 36.52C90.3536 37.1333 90.3336 37.6267 90.2936 38H80.3736L80.1936 36.9C81.0603 36.5667 81.6203 36.3733 81.8736 36.32C81.8603 35.5333 81.8469 34.4267 81.8336 33C81.7803 29.8 81.7336 27.38 81.6936 25.74L80.0336 25.22L80.1936 24H90.0136C90.0536 24.36 90.0736 24.8133 90.0736 25.36C90.0736 25.8933 89.9736 26.64 89.7736 27.6C89.3603 27.7333 88.7336 27.8 87.8936 27.8L87.4336 26H84.4136ZM104.028 30.7C104.028 33.6333 103.328 35.6733 101.928 36.82C101.355 37.2733 100.735 37.5867 100.068 37.76C99.4015 37.92 98.5281 38 97.4481 38H92.2681L92.0881 36.9C93.1015 36.5267 93.6615 36.3333 93.7681 36.32C93.7681 36.28 93.7081 32.7533 93.5881 25.74C93.0015 25.5933 92.4481 25.42 91.9281 25.22C92.0081 24.5267 92.0615 24.12 92.0881 24H97.3881C98.6948 24 99.7348 24.1333 100.508 24.4C101.295 24.6667 101.988 25.14 102.588 25.82C103.548 26.94 104.028 28.5667 104.028 30.7ZM97.6281 36.06C99.1481 36.06 100.155 35.6933 100.648 34.96C101.155 34.2267 101.408 32.96 101.408 31.16C101.408 29.36 101.128 28.0533 100.568 27.24C100.008 26.4133 99.0748 26 97.7681 26H96.3081C96.2548 30.4933 96.2215 33.8467 96.2081 36.06H97.6281ZM111.128 24C111.115 24 111.115 24.0133 111.128 24.04C111.155 24.0667 111.181 24.1267 111.208 24.22C111.248 24.3 111.288 24.4 111.328 24.52C111.408 24.7333 111.461 25.0867 111.488 25.58C110.808 25.6867 110.361 25.7533 110.148 25.78L110.048 36.08L111.428 36.26C111.428 36.8067 111.275 37.3867 110.968 38H106.108L105.928 36.9C106.675 36.5933 107.235 36.4 107.608 36.32C107.595 35.5333 107.575 34.4267 107.548 33C107.508 29.8 107.468 27.38 107.428 25.74L105.768 25.22L105.928 24H111.128ZM122.646 24.22L122.666 24.42C122.666 24.9667 122.579 25.4333 122.406 25.82C122.232 25.9533 121.959 26.06 121.586 26.14L124.926 36.02L126.826 36.26C126.826 36.8067 126.672 37.3867 126.366 38H121.506L121.326 36.9C121.886 36.6867 122.252 36.5467 122.426 36.48L121.626 34.22H117.126C116.726 35.4067 116.512 36.0267 116.486 36.08L117.866 36.26C117.866 36.54 117.812 36.8667 117.706 37.24C117.599 37.6 117.499 37.8533 117.406 38H112.546L112.366 36.9C112.966 36.6467 113.506 36.46 113.986 36.34L117.346 26.06C116.452 25.9267 115.779 25.7533 115.326 25.54C115.326 25.1533 115.386 24.8133 115.506 24.52C115.786 24.4267 116.439 24.32 117.466 24.2C118.506 24.0667 119.492 24 120.426 24C121.372 24 122.112 24.0733 122.646 24.22ZM120.066 29.72L119.486 27.08H119.286L118.646 29.84L117.706 32.34H121.046L120.066 29.72ZM126.267 27.64C126.054 26.72 125.947 25.9933 125.947 25.46C125.947 24.9267 125.967 24.44 126.007 24H137.627C137.68 24.64 137.707 25.0733 137.707 25.3C137.707 25.8733 137.6 26.6533 137.387 27.64C137 27.7467 136.367 27.8 135.487 27.8L135.027 25.78H133.327C133.314 26.2867 133.254 29.72 133.147 36.08L134.587 36.26C134.587 36.8733 134.434 37.4533 134.127 38H129.267L129.087 36.9C130.007 36.5533 130.587 36.36 130.827 36.32C130.827 36.2667 130.747 32.76 130.587 25.8H128.607L128.167 27.76C127.38 27.76 126.747 27.72 126.267 27.64ZM144.429 24C144.415 24 144.415 24.0133 144.429 24.04C144.455 24.0667 144.482 24.1267 144.509 24.22C144.549 24.3 144.589 24.4 144.629 24.52C144.709 24.7333 144.762 25.0867 144.789 25.58C144.109 25.6867 143.662 25.7533 143.449 25.78L143.349 36.08L144.729 36.26C144.729 36.8067 144.575 37.3867 144.269 38H139.409L139.229 36.9C139.975 36.5933 140.535 36.4 140.909 36.32C140.895 35.5333 140.875 34.4267 140.849 33C140.809 29.8 140.769 27.38 140.729 25.74L139.069 25.22L139.229 24H144.429ZM152.166 36.12C154.38 36.12 155.486 34.42 155.486 31.02C155.486 27.62 154.38 25.92 152.166 25.92C151.206 25.92 150.366 26.0667 149.646 26.36C149.033 27.64 148.726 29.1267 148.726 30.82C148.726 32.5 148.98 33.8067 149.486 34.74C149.993 35.66 150.886 36.12 152.166 36.12ZM152.166 23.76C154.393 23.76 155.96 24.3467 156.866 25.52C157.773 26.68 158.226 28.46 158.226 30.86C158.226 32.3667 158.033 33.6533 157.646 34.72C157.26 35.7867 156.606 36.64 155.686 37.28C154.766 37.92 153.593 38.24 152.166 38.24C149.993 38.24 148.413 37.6333 147.426 36.42C146.453 35.2067 145.966 33.44 145.966 31.12C145.966 26.2133 148.033 23.76 152.166 23.76ZM172.716 25.78L172.656 38H170.096L163.496 27.24C163.442 31.1467 163.409 34.0933 163.396 36.08L164.776 36.26C164.776 36.8067 164.622 37.3867 164.316 38H159.456L159.276 36.9C160.022 36.5933 160.582 36.4 160.956 36.32C160.956 36.28 160.896 32.7533 160.776 25.74L159.116 25.22L159.276 24H164.476L170.296 34.44L169.996 25.74L168.336 25.22L168.496 24H173.696C173.682 24 173.682 24.0133 173.696 24.04C173.722 24.0667 173.749 24.1267 173.776 24.22C173.816 24.3 173.856 24.4 173.896 24.52C173.976 24.7333 174.029 25.0867 174.056 25.58C173.376 25.6867 172.929 25.7533 172.716 25.78Z" fill="white"/>
<path d="M21.8411 0.236164C21.7155 0.403719 21.5063 1.70227 21.3808 3.0846C20.8787 7.73426 20.7114 8.23692 19.8745 8.44637C19.1214 8.65581 19.0377 9.03281 19.0377 12.719C19.0377 18.7929 20.0419 20.0496 24.8955 20.0496C29.749 20.0496 30.7532 18.7929 30.7532 12.719C30.7532 9.03281 30.6695 8.65581 29.9164 8.44637C29.0796 8.23692 28.9959 7.98559 28.3683 2.87516L28.0335 0.152386L25.021 0.02672C23.3892 -0.0570583 21.9666 0.0686092 21.8411 0.236164Z" fill="#4DD95B"/>
<path d="M8.28452 20.0495C8.07531 20.8873 7.82427 20.9711 2.71967 21.5994L0 21.9345V25.0762V28.2178L2.71967 28.553C7.82427 29.1813 8.07531 29.2651 8.28452 30.1028C8.49372 30.8568 8.87029 30.9406 12.5523 30.9406C18.6192 30.9406 19.8745 29.9353 19.8745 25.0343C19.8745 22.144 19.1213 20.4265 17.5732 19.7144C16.9874 19.4212 14.6862 19.2118 12.5105 19.2118C8.87029 19.2118 8.49372 19.2955 8.28452 20.0495Z" fill="#93D94D"/>
<path d="M32.0502 19.7982C30.544 20.636 29.9582 22.1021 29.9163 24.9505C29.9163 29.9353 31.1297 30.9406 37.2385 30.9406C40.9205 30.9406 41.2971 30.8568 41.5063 30.1028C41.7155 29.2651 42.3013 29.0975 46.8201 28.6367C48.159 28.5111 49.4561 28.3016 49.6235 28.176C50.1255 27.8827 50.1255 22.2696 49.6235 21.9764C49.4561 21.8507 48.159 21.6413 46.8201 21.5156C42.3013 21.0549 41.7155 20.8873 41.5063 20.0495C41.2971 19.2955 40.9205 19.2118 37.1548 19.2118C34.5607 19.2536 32.6778 19.4631 32.0502 19.7982Z" fill="#93D94D"/>
<path d="M22.5942 22.7723C21.9247 23.4006 21.5481 24.2803 21.5481 25.0762C21.5481 25.8721 21.9247 26.7518 22.5942 27.3801C24.6444 29.4745 28.2427 28.0084 28.2427 25.0762C28.2427 24.2803 27.8661 23.4006 27.1967 22.7723C26.569 22.1021 25.6904 21.7251 24.8954 21.7251C24.1004 21.7251 23.2218 22.1021 22.5942 22.7723Z" fill="#93D94D"/>
<path d="M21.1716 30.6893C19.498 31.6108 19.0796 32.9513 19.0377 37.3496C19.0377 41.1196 19.1214 41.4966 19.8745 41.706C20.7114 41.9155 20.795 42.1668 21.4227 47.2772L21.7574 50H24.8955H28.0335L28.3683 47.2772C28.9959 42.1668 29.0796 41.9155 29.9164 41.706C30.6695 41.4966 30.7532 41.1196 30.7532 37.4753C30.7532 33.035 30.293 31.5689 28.6193 30.6893C27.1549 29.9353 22.5105 29.9353 21.1716 30.6893Z" fill="#4DD95B"/>
</svg>
